<svg width="20" height="20" viewBox="0 0 20 20" fill="none" xmlns="http://www.w3.org/2000/svg">
<path d="M9.16666 10.8333H4.99999C4.76388 10.8333 4.5661 10.7533 4.40666 10.5933C4.24722 10.4333 4.16721 10.2355 4.16666 9.99996C4.1661 9.76441 4.2461 9.56663 4.40666 9.40663C4.56721 9.24663 4.76499 9.16663 4.99999 9.16663H9.16666V4.99996C9.16666 4.76385 9.24666 4.56607 9.40666 4.40663C9.56666 4.24718 9.76444 4.16718 9.99999 4.16663C10.2355 4.16607 10.4336 4.24607 10.5942 4.40663C10.7547 4.56718 10.8344 4.76496 10.8333 4.99996V9.16663H15C15.2361 9.16663 15.4342 9.24663 15.5942 9.40663C15.7542 9.56663 15.8339 9.76441 15.8333 9.99996C15.8328 10.2355 15.7528 10.4336 15.5933 10.5941C15.4339 10.7547 15.2361 10.8344 15 10.8333H10.8333V15C10.8333 15.2361 10.7533 15.4341 10.5933 15.5941C10.4333 15.7541 10.2355 15.8339 9.99999 15.8333C9.76444 15.8327 9.56666 15.7527 9.40666 15.5933C9.24666 15.4339 9.16666 15.2361 9.16666 15V10.8333Z" fill="#F9FBFF"/>
</svg>
