<svg width="20" height="20" viewBox="0 0 20 20" fill="none" xmlns="http://www.w3.org/2000/svg">
<path d="M5.71429 19.2857V5.71425M14.2857 19.2857V5.71425M6.42858 5.71425C6.42858 4.76705 6.80485 3.85864 7.47463 3.18887C8.1444 2.5191 9.05281 2.14282 10 2.14282C10.9472 2.14282 11.8556 2.5191 12.5254 3.18887C13.1952 3.85864 13.5714 4.76705 13.5714 5.71425M16.4286 5.71425H3.57144C2.81368 5.71425 2.08695 6.01527 1.55113 6.55109C1.01531 7.08691 0.714294 7.81363 0.714294 8.57139V16.4285C0.714294 17.1863 1.01531 17.913 1.55113 18.4488C2.08695 18.9847 2.81368 19.2857 3.57144 19.2857H16.4286C17.1863 19.2857 17.9131 18.9847 18.4489 18.4488C18.9847 17.913 19.2857 17.1863 19.2857 16.4285V8.57139C19.2857 7.81363 18.9847 7.08691 18.4489 6.55109C17.9131 6.01527 17.1863 5.71425 16.4286 5.71425Z" stroke="black" stroke-width="1.42857" stroke-linecap="round" stroke-linejoin="round"/>
</svg>
