<svg width="20" height="20" viewBox="0 0 20 20" fill="none" xmlns="http://www.w3.org/2000/svg">
<path d="M4.99999 16.6667C4.54166 16.6667 4.14944 16.5036 3.82333 16.1775C3.49722 15.8514 3.33388 15.4589 3.33333 15V13.3333C3.33333 13.0972 3.41333 12.8995 3.57333 12.74C3.73333 12.5806 3.93111 12.5006 4.16666 12.5C4.40222 12.4995 4.60027 12.5795 4.76083 12.74C4.92138 12.9006 5.00111 13.0983 4.99999 13.3333V15H15V13.3333C15 13.0972 15.08 12.8995 15.24 12.74C15.4 12.5806 15.5978 12.5006 15.8333 12.5C16.0689 12.4995 16.2669 12.5795 16.4275 12.74C16.588 12.9006 16.6678 13.0983 16.6667 13.3333V15C16.6667 15.4583 16.5036 15.8508 16.1775 16.1775C15.8514 16.5042 15.4589 16.6672 15 16.6667H4.99999ZM9.16666 6.54168L7.60416 8.10418C7.43749 8.27085 7.23972 8.35085 7.01083 8.34418C6.78194 8.33751 6.58388 8.25057 6.41666 8.08335C6.26388 7.91668 6.18388 7.72223 6.17666 7.50001C6.16944 7.27779 6.24944 7.08335 6.41666 6.91668L9.41666 3.91668C9.49999 3.83335 9.59027 3.77446 9.68749 3.74001C9.78472 3.70557 9.88888 3.68807 9.99999 3.68751C10.1111 3.68696 10.2153 3.70446 10.3125 3.74001C10.4097 3.77557 10.5 3.83446 10.5833 3.91668L13.5833 6.91668C13.75 7.08335 13.83 7.27779 13.8233 7.50001C13.8167 7.72223 13.7367 7.91668 13.5833 8.08335C13.4167 8.25001 13.2189 8.33696 12.99 8.34418C12.7611 8.3514 12.5631 8.2714 12.3958 8.10418L10.8333 6.54168V12.5C10.8333 12.7361 10.7533 12.9342 10.5933 13.0942C10.4333 13.2542 10.2356 13.3339 9.99999 13.3333C9.76444 13.3328 9.56666 13.2528 9.40666 13.0933C9.24666 12.9339 9.16666 12.7361 9.16666 12.5V6.54168Z" fill="#F9FBFF"/>
</svg>
