<svg width="20" height="20" viewBox="0 0 20 20" fill="none" xmlns="http://www.w3.org/2000/svg">
<path d="M1.66665 2.49996V1.66663C1.44563 1.66663 1.23367 1.75442 1.07739 1.9107C0.92111 2.06698 0.833313 2.27895 0.833313 2.49996H1.66665ZM10.8333 2.49996H11.6666C11.6666 2.27895 11.5788 2.06698 11.4226 1.9107C11.2663 1.75442 11.0543 1.66663 10.8333 1.66663V2.49996ZM10.8333 7.49996V6.66663C10.6123 6.66663 10.4003 6.75442 10.2441 6.9107C10.0878 7.06698 9.99998 7.27895 9.99998 7.49996H10.8333ZM1.66665 3.33329H10.8333V1.66663H1.66665V3.33329ZM9.99998 2.49996V15.8333H11.6666V2.49996H9.99998ZM2.49998 14.1666V2.49996H0.833313V14.1666H2.49998ZM10.8333 8.33329H15V6.66663H10.8333V8.33329ZM17.5 10.8333V14.1666H19.1666V10.8333H17.5ZM11.6666 15.8333V7.49996H9.99998V15.8333H11.6666ZM15.5891 16.4225C15.4329 16.5787 15.221 16.6664 15 16.6664C14.779 16.6664 14.5671 16.5787 14.4108 16.4225L13.2325 17.6008C13.7013 18.0695 14.3371 18.3328 15 18.3328C15.6629 18.3328 16.2987 18.0695 16.7675 17.6008L15.5891 16.4225ZM14.4108 15.2441C14.5671 15.0879 14.779 15.0001 15 15.0001C15.221 15.0001 15.4329 15.0879 15.5891 15.2441L16.7675 14.0658C16.2987 13.5971 15.6629 13.3338 15 13.3338C14.3371 13.3338 13.7013 13.5971 13.2325 14.0658L14.4108 15.2441ZM5.58915 16.4225C5.43287 16.5787 5.22095 16.6664 4.99998 16.6664C4.77901 16.6664 4.56709 16.5787 4.41081 16.4225L3.23248 17.6008C3.7013 18.0695 4.33707 18.3328 4.99998 18.3328C5.66289 18.3328 6.29866 18.0695 6.76748 17.6008L5.58915 16.4225ZM4.41081 15.2441C4.56709 15.0879 4.77901 15.0001 4.99998 15.0001C5.22095 15.0001 5.43287 15.0879 5.58915 15.2441L6.76748 14.0658C6.29866 13.5971 5.66289 13.3338 4.99998 13.3338C4.33707 13.3338 3.7013 13.5971 3.23248 14.0658L4.41081 15.2441ZM15.5891 15.2441C15.7525 15.4066 15.8333 15.6191 15.8333 15.8333H17.5C17.5 15.195 17.2558 14.5533 16.7675 14.0658L15.5891 15.2441ZM15.8333 15.8333C15.8333 16.0543 15.7454 16.2662 15.5891 16.4225L16.7675 17.6008C17.2364 17.1321 17.4998 16.4963 17.5 15.8333H15.8333ZM13.3333 15H10.8333V16.6666H13.3333V15ZM14.4108 16.4225C14.2545 16.2662 14.1667 16.0543 14.1666 15.8333H12.5C12.5 16.4716 12.7441 17.1133 13.2325 17.6008L14.4108 16.4225ZM14.1666 15.8333C14.1667 15.6123 14.2545 15.4004 14.4108 15.2441L13.2325 14.0658C12.7636 14.5345 12.5001 15.1703 12.5 15.8333H14.1666ZM4.41081 16.4225C4.25452 16.2662 4.16669 16.0543 4.16665 15.8333H2.49998C2.49998 16.4716 2.74415 17.1133 3.23248 17.6008L4.41081 16.4225ZM4.16665 15.8333C4.16669 15.6123 4.25452 15.4004 4.41081 15.2441L3.23248 14.0658C2.76361 14.5345 2.50012 15.1703 2.49998 15.8333H4.16665ZM10.8333 15H6.66665V16.6666H10.8333V15ZM5.58915 15.2441C5.75248 15.4066 5.83331 15.6191 5.83331 15.8333H7.49998C7.49998 15.195 7.25581 14.5533 6.76748 14.0658L5.58915 15.2441ZM5.83331 15.8333C5.83327 16.0543 5.74544 16.2662 5.58915 16.4225L6.76748 17.6008C7.23635 17.1321 7.49984 16.4963 7.49998 15.8333H5.83331ZM17.5 14.1666C17.5 14.3876 17.4122 14.5996 17.2559 14.7559C17.0996 14.9122 16.8877 15 16.6666 15V16.6666C17.3297 16.6666 17.9656 16.4032 18.4344 15.9344C18.9033 15.4656 19.1666 14.8297 19.1666 14.1666H17.5ZM15 8.33329C15.663 8.33329 16.2989 8.59668 16.7677 9.06553C17.2366 9.53437 17.5 10.1703 17.5 10.8333H19.1666C19.1666 10.2861 19.0589 9.7443 18.8495 9.23878C18.6401 8.73325 18.3332 8.27392 17.9463 7.88701C17.5593 7.5001 17.1 7.19319 16.5945 6.98379C16.089 6.7744 15.5472 6.66663 15 6.66663V8.33329ZM0.833313 14.1666C0.833313 14.8297 1.09671 15.4656 1.56555 15.9344C2.03439 16.4032 2.67027 16.6666 3.33331 16.6666V15C3.1123 15 2.90034 14.9122 2.74406 14.7559C2.58778 14.5996 2.49998 14.3876 2.49998 14.1666H0.833313Z" fill="black"/>
</svg>
