<svg width="20" height="20" viewBox="0 0 20 20" fill="none" xmlns="http://www.w3.org/2000/svg">
<path d="M9.68754 12.9272C9.59032 12.8922 9.50004 12.833 9.41671 12.7497L6.41671 9.74968C6.25004 9.58301 6.17004 9.38857 6.17671 9.16634C6.18337 8.94412 6.26337 8.74968 6.41671 8.58301C6.58337 8.41634 6.78143 8.32968 7.01087 8.32301C7.24032 8.31634 7.4381 8.39607 7.60421 8.56218L9.16671 10.1247V4.16634C9.16671 3.93023 9.24671 3.73246 9.40671 3.57301C9.56671 3.41357 9.76448 3.33357 10 3.33301C10.2356 3.33246 10.4337 3.41246 10.5942 3.57301C10.7548 3.73357 10.8345 3.93134 10.8334 4.16634V10.1247L12.3959 8.56218C12.5625 8.39551 12.7606 8.31551 12.99 8.32218C13.2195 8.32884 13.4173 8.41579 13.5834 8.58301C13.7362 8.74968 13.8162 8.94412 13.8234 9.16634C13.8306 9.38857 13.7506 9.58301 13.5834 9.74968L10.5834 12.7497C10.5 12.833 10.4098 12.8922 10.3125 12.9272C10.2153 12.9622 10.1112 12.9794 10 12.9788C9.88893 12.9783 9.78476 12.9611 9.68754 12.9272ZM5.00004 16.6663C4.54171 16.6663 4.14948 16.5033 3.82337 16.1772C3.49726 15.8511 3.33393 15.4586 3.33337 14.9997V13.333C3.33337 13.0969 3.41337 12.8991 3.57337 12.7397C3.73337 12.5802 3.93115 12.5002 4.16671 12.4997C4.40226 12.4991 4.60032 12.5791 4.76087 12.7397C4.92143 12.9002 5.00115 13.098 5.00004 13.333V14.9997H15V13.333C15 13.0969 15.08 12.8991 15.24 12.7397C15.4 12.5802 15.5978 12.5002 15.8334 12.4997C16.0689 12.4991 16.267 12.5791 16.4275 12.7397C16.5881 12.9002 16.6678 13.098 16.6667 13.333V14.9997C16.6667 15.458 16.5037 15.8505 16.1775 16.1772C15.8514 16.5038 15.4589 16.6669 15 16.6663H5.00004Z" fill="white"/>
</svg>
