<svg width="21" height="20" viewBox="0 0 21 20" fill="none" xmlns="http://www.w3.org/2000/svg">
<mask id="path-1-outside-1_3116_9576" maskUnits="userSpaceOnUse" x="-0.89978" y="1.4668" width="22" height="17" fill="black">
<rect fill="white" x="-0.89978" y="1.4668" width="22" height="17"/>
<path d="M6.76689 11.8668C8.68689 11.8668 10.3402 12.2028 11.5336 13.0068C12.7696 13.8401 13.4336 15.1242 13.4336 16.8002C13.4228 16.9697 13.3479 17.1287 13.2241 17.245C13.1002 17.3613 12.9367 17.426 12.7669 17.426C12.597 17.426 12.4335 17.3613 12.3097 17.245C12.1859 17.1287 12.1109 16.9697 12.1002 16.8002C12.1002 15.5228 11.6229 14.6722 10.7896 14.1108C9.91222 13.5215 8.56689 13.2001 6.76689 13.2001C4.96689 13.2001 3.62022 13.5215 2.74422 14.1122C1.91089 14.6735 1.43355 15.5241 1.43355 16.8015C1.42283 16.971 1.34792 17.1301 1.22408 17.2463C1.10023 17.3626 0.936749 17.4273 0.766886 17.4273C0.597024 17.4273 0.433542 17.3626 0.309697 17.2463C0.185852 17.1301 0.110947 16.971 0.10022 16.8015C0.10022 15.1242 0.762886 13.8401 1.99889 13.0068C3.19222 12.2028 4.84689 11.8668 6.76689 11.8668ZM13.4002 11.8668C15.3189 11.8668 16.9736 12.2028 18.1669 13.0068C19.4029 13.8401 20.0669 15.1242 20.0669 16.8015C20.0669 16.9783 19.9966 17.1479 19.8716 17.2729C19.7466 17.3979 19.577 17.4682 19.4002 17.4682C19.2234 17.4682 19.0538 17.3979 18.9288 17.2729C18.8038 17.1479 18.7336 16.9783 18.7336 16.8015C18.7336 15.5241 18.2562 14.6735 17.4216 14.1122C16.7309 13.6468 15.7509 13.3521 14.4856 13.2455C14.1704 12.7306 13.7793 12.2663 13.3256 11.8681L13.4002 11.8668ZM6.76689 2.46682C7.86247 2.49442 8.90391 2.94904 9.66903 3.73368C10.4341 4.51833 10.8624 5.57088 10.8624 6.66682C10.8624 7.76275 10.4341 8.81531 9.66903 9.59995C8.90391 10.3846 7.86247 10.8392 6.76689 10.8668C5.65298 10.8668 4.58469 10.4243 3.79704 9.63666C3.00939 8.84901 2.56689 7.78073 2.56689 6.66682C2.56689 5.55291 3.00939 4.48462 3.79704 3.69697C4.58469 2.90931 5.65298 2.46682 6.76689 2.46682ZM13.4002 2.46682C14.5141 2.46682 15.5824 2.90931 16.3701 3.69697C17.1577 4.48462 17.6002 5.55291 17.6002 6.66682C17.6002 7.78073 17.1577 8.84901 16.3701 9.63666C15.5824 10.4243 14.5141 10.8668 13.4002 10.8668C12.7016 10.8668 12.0456 10.6935 11.4669 10.3921C11.7459 10.0413 11.9847 9.66023 12.1789 9.25615C12.6158 9.46285 13.0979 9.55571 13.5804 9.5261C14.0628 9.49649 14.5299 9.34537 14.9383 9.08679C15.3467 8.82822 15.6831 8.47058 15.9161 8.04713C16.1492 7.62368 16.2714 7.14817 16.2714 6.66482C16.2714 6.18146 16.1492 5.70595 15.9161 5.2825C15.6831 4.85906 15.3467 4.50142 14.9383 4.24284C14.5299 3.98426 14.0628 3.83314 13.5804 3.80353C13.0979 3.77392 12.6158 3.86679 12.1789 4.07348C11.9841 3.67027 11.7449 3.29013 11.4656 2.94015C12.0618 2.62724 12.7255 2.46475 13.3989 2.46682M6.76689 3.80015C6.02173 3.82288 5.31471 4.13487 4.79566 4.66999C4.27661 5.20511 3.98633 5.92132 3.98633 6.66682C3.98633 7.41232 4.27661 8.12852 4.79566 8.66364C5.31471 9.19877 6.02173 9.51075 6.76689 9.53348C7.52717 9.53348 8.25632 9.23146 8.79393 8.69386C9.33153 8.15625 9.63355 7.4271 9.63355 6.66682C9.63355 5.90653 9.33153 5.17738 8.79393 4.63978C8.25632 4.10217 7.52717 3.80015 6.76689 3.80015Z"/>
</mask>
<path d="M6.76689 11.8668C8.68689 11.8668 10.3402 12.2028 11.5336 13.0068C12.7696 13.8401 13.4336 15.1242 13.4336 16.8002C13.4228 16.9697 13.3479 17.1287 13.2241 17.245C13.1002 17.3613 12.9367 17.426 12.7669 17.426C12.597 17.426 12.4335 17.3613 12.3097 17.245C12.1859 17.1287 12.1109 16.9697 12.1002 16.8002C12.1002 15.5228 11.6229 14.6722 10.7896 14.1108C9.91222 13.5215 8.56689 13.2001 6.76689 13.2001C4.96689 13.2001 3.62022 13.5215 2.74422 14.1122C1.91089 14.6735 1.43355 15.5241 1.43355 16.8015C1.42283 16.971 1.34792 17.1301 1.22408 17.2463C1.10023 17.3626 0.936749 17.4273 0.766886 17.4273C0.597024 17.4273 0.433542 17.3626 0.309697 17.2463C0.185852 17.1301 0.110947 16.971 0.10022 16.8015C0.10022 15.1242 0.762886 13.8401 1.99889 13.0068C3.19222 12.2028 4.84689 11.8668 6.76689 11.8668ZM13.4002 11.8668C15.3189 11.8668 16.9736 12.2028 18.1669 13.0068C19.4029 13.8401 20.0669 15.1242 20.0669 16.8015C20.0669 16.9783 19.9966 17.1479 19.8716 17.2729C19.7466 17.3979 19.577 17.4682 19.4002 17.4682C19.2234 17.4682 19.0538 17.3979 18.9288 17.2729C18.8038 17.1479 18.7336 16.9783 18.7336 16.8015C18.7336 15.5241 18.2562 14.6735 17.4216 14.1122C16.7309 13.6468 15.7509 13.3521 14.4856 13.2455C14.1704 12.7306 13.7793 12.2663 13.3256 11.8681L13.4002 11.8668ZM6.76689 2.46682C7.86247 2.49442 8.90391 2.94904 9.66903 3.73368C10.4341 4.51833 10.8624 5.57088 10.8624 6.66682C10.8624 7.76275 10.4341 8.81531 9.66903 9.59995C8.90391 10.3846 7.86247 10.8392 6.76689 10.8668C5.65298 10.8668 4.58469 10.4243 3.79704 9.63666C3.00939 8.84901 2.56689 7.78073 2.56689 6.66682C2.56689 5.55291 3.00939 4.48462 3.79704 3.69697C4.58469 2.90931 5.65298 2.46682 6.76689 2.46682ZM13.4002 2.46682C14.5141 2.46682 15.5824 2.90931 16.3701 3.69697C17.1577 4.48462 17.6002 5.55291 17.6002 6.66682C17.6002 7.78073 17.1577 8.84901 16.3701 9.63666C15.5824 10.4243 14.5141 10.8668 13.4002 10.8668C12.7016 10.8668 12.0456 10.6935 11.4669 10.3921C11.7459 10.0413 11.9847 9.66023 12.1789 9.25615C12.6158 9.46285 13.0979 9.55571 13.5804 9.5261C14.0628 9.49649 14.5299 9.34537 14.9383 9.08679C15.3467 8.82822 15.6831 8.47058 15.9161 8.04713C16.1492 7.62368 16.2714 7.14817 16.2714 6.66482C16.2714 6.18146 16.1492 5.70595 15.9161 5.2825C15.6831 4.85906 15.3467 4.50142 14.9383 4.24284C14.5299 3.98426 14.0628 3.83314 13.5804 3.80353C13.0979 3.77392 12.6158 3.86679 12.1789 4.07348C11.9841 3.67027 11.7449 3.29013 11.4656 2.94015C12.0618 2.62724 12.7255 2.46475 13.3989 2.46682M6.76689 3.80015C6.02173 3.82288 5.31471 4.13487 4.79566 4.66999C4.27661 5.20511 3.98633 5.92132 3.98633 6.66682C3.98633 7.41232 4.27661 8.12852 4.79566 8.66364C5.31471 9.19877 6.02173 9.51075 6.76689 9.53348C7.52717 9.53348 8.25632 9.23146 8.79393 8.69386C9.33153 8.15625 9.63355 7.4271 9.63355 6.66682C9.63355 5.90653 9.33153 5.17738 8.79393 4.63978C8.25632 4.10217 7.52717 3.80015 6.76689 3.80015Z" fill="black"/>
<path d="M11.5336 13.0068L11.5895 12.9239L11.5894 12.9239L11.5336 13.0068ZM13.4336 16.8002L13.5336 16.8065V16.8002H13.4336ZM12.1002 16.8002H12L12.0004 16.8065L12.1002 16.8002ZM10.7896 14.1108L10.8454 14.0279L10.8453 14.0278L10.7896 14.1108ZM2.74422 14.1122L2.80009 14.1951L2.80013 14.1951L2.74422 14.1122ZM1.43355 16.8015L1.53355 16.8078V16.8015H1.43355ZM0.10022 16.8015H1.97217e-05L0.000419326 16.8078L0.10022 16.8015ZM1.99889 13.0068L1.94301 12.9239L1.94298 12.9239L1.99889 13.0068ZM13.4002 11.8668V11.7668L13.3984 11.7668L13.4002 11.8668ZM18.1669 13.0068L18.2228 12.9239L18.2228 12.9239L18.1669 13.0068ZM17.4216 14.1122L17.3657 14.1951L17.3657 14.1951L17.4216 14.1122ZM14.4856 13.2455L14.4003 13.2977L14.4267 13.3409L14.4772 13.3451L14.4856 13.2455ZM13.3256 11.8681L13.3238 11.7682L13.0652 11.7728L13.2596 11.9433L13.3256 11.8681ZM6.76689 2.46682L6.76941 2.36682H6.76689V2.46682ZM6.76689 10.8668V10.9668L6.76941 10.9668L6.76689 10.8668ZM2.56689 6.66682H2.46689H2.56689ZM17.6002 6.66682H17.7002H17.6002ZM13.4002 10.8668V10.9668V10.8668ZM11.4669 10.3921L11.3886 10.3299L11.3131 10.4248L11.4207 10.4808L11.4669 10.3921ZM12.1789 9.25615L12.2217 9.16575L12.1318 9.12325L12.0888 9.21284L12.1789 9.25615ZM15.9161 8.04713L16.0037 8.09535L15.9161 8.04713ZM16.2714 6.66482H16.1714H16.2714ZM15.9161 5.2825L16.0037 5.23428L15.9161 5.2825ZM12.1789 4.07348L12.0888 4.11697L12.132 4.2063L12.2217 4.16388L12.1789 4.07348ZM11.4656 2.94015L11.4191 2.8516L11.3119 2.90788L11.3874 3.00253L11.4656 2.94015ZM6.76689 3.80015V3.7001L6.76384 3.7002L6.76689 3.80015ZM6.76689 9.53348L6.76384 9.63348H6.76689V9.53348ZM9.63355 6.66682H9.73355H9.63355ZM6.76689 11.8668V11.9668C8.67793 11.9668 10.3081 12.3017 11.4777 13.0897L11.5336 13.0068L11.5894 12.9239C10.3724 12.1039 8.69585 11.7668 6.76689 11.7668V11.8668ZM11.5336 13.0068L11.4777 13.0897C12.6835 13.9027 13.3336 15.1541 13.3336 16.8002H13.4336H13.5336C13.5336 15.0942 12.8556 13.7776 11.5895 12.9239L11.5336 13.0068ZM13.4336 16.8002L13.3338 16.7938C13.3246 16.938 13.2609 17.0732 13.1556 17.1721L13.2241 17.245L13.2925 17.3179C13.4349 17.1842 13.521 17.0014 13.5334 16.8065L13.4336 16.8002ZM13.2241 17.245L13.1556 17.1721C13.0503 17.2709 12.9113 17.326 12.7669 17.326V17.426V17.526C12.9622 17.526 13.1501 17.4516 13.2925 17.3179L13.2241 17.245ZM12.7669 17.426V17.326C12.6225 17.326 12.4834 17.2709 12.3781 17.1721L12.3097 17.245L12.2413 17.3179C12.3836 17.4516 12.5716 17.526 12.7669 17.526V17.426ZM12.3097 17.245L12.3781 17.1721C12.2728 17.0732 12.2091 16.938 12.2 16.7938L12.1002 16.8002L12.0004 16.8065C12.0128 17.0014 12.0989 17.1842 12.2413 17.3179L12.3097 17.245ZM12.1002 16.8002H12.2002C12.2002 15.4928 11.709 14.6096 10.8454 14.0279L10.7896 14.1108L10.7337 14.1938C11.5368 14.7347 12.0002 15.5528 12.0002 16.8002H12.1002ZM10.7896 14.1108L10.8453 14.0278C9.94432 13.4226 8.57585 13.1002 6.76689 13.1002V13.2001V13.3001C8.55792 13.3001 9.88012 13.6204 10.7338 14.1938L10.7896 14.1108ZM6.76689 13.2001V13.1002C4.95798 13.1002 3.58806 13.4226 2.68831 14.0292L2.74422 14.1122L2.80013 14.1951C3.65237 13.6204 4.97579 13.3001 6.76689 13.3001V13.2001ZM2.74422 14.1122L2.68835 14.0292C1.82481 14.6109 1.33355 15.4942 1.33355 16.8015H1.43355H1.53355C1.53355 15.5541 1.99696 14.7361 2.80009 14.1951L2.74422 14.1122ZM1.43355 16.8015L1.33375 16.7952C1.32463 16.9393 1.26094 17.0746 1.15563 17.1734L1.22408 17.2463L1.29252 17.3192C1.4349 17.1856 1.52102 17.0027 1.53335 16.8078L1.43355 16.8015ZM1.22408 17.2463L1.15563 17.1734C1.05033 17.2723 0.91132 17.3273 0.766886 17.3273V17.4273V17.5273C0.962177 17.5273 1.15013 17.4529 1.29252 17.3192L1.22408 17.2463ZM0.766886 17.4273V17.3273C0.622452 17.3273 0.483444 17.2723 0.378138 17.1734L0.309697 17.2463L0.241255 17.3192C0.38364 17.4529 0.571596 17.5273 0.766886 17.5273V17.4273ZM0.309697 17.2463L0.378138 17.1734C0.272833 17.0746 0.209141 16.9393 0.20002 16.7952L0.10022 16.8015L0.000419326 16.8078C0.0127521 17.0027 0.0988704 17.1856 0.241255 17.3192L0.309697 17.2463ZM0.10022 16.8015H0.20022C0.20022 15.1541 0.849019 13.9027 2.05479 13.0897L1.99889 13.0068L1.94298 12.9239C0.676754 13.7776 0.000219725 15.0942 0.000219725 16.8015H0.10022ZM1.99889 13.0068L2.05476 13.0897C3.22438 12.3017 4.85583 11.9668 6.76689 11.9668V11.8668V11.7668C4.83794 11.7668 3.16006 12.1039 1.94301 12.9239L1.99889 13.0068ZM13.4002 11.8668V11.9668C15.3099 11.9668 16.9414 12.3017 18.111 13.0897L18.1669 13.0068L18.2228 12.9239C17.0057 12.1039 15.3278 11.7668 13.4002 11.7668V11.8668ZM18.1669 13.0068L18.111 13.0897C19.3168 13.9027 19.9669 15.1541 19.9669 16.8015H20.0669H20.1669C20.1669 15.0942 19.489 13.7776 18.2228 12.9239L18.1669 13.0068ZM20.0669 16.8015H19.9669C19.9669 16.9518 19.9072 17.0959 19.8009 17.2022L19.8716 17.2729L19.9423 17.3436C20.0861 17.1998 20.1669 17.0048 20.1669 16.8015H20.0669ZM19.8716 17.2729L19.8009 17.2022C19.6946 17.3084 19.5505 17.3682 19.4002 17.3682V17.4682V17.5682C19.6036 17.5682 19.7986 17.4874 19.9423 17.3436L19.8716 17.2729ZM19.4002 17.4682V17.3682C19.2499 17.3682 19.1058 17.3084 18.9995 17.2022L18.9288 17.2729L18.8581 17.3436C19.0019 17.4874 19.1969 17.5682 19.4002 17.5682V17.4682ZM18.9288 17.2729L18.9995 17.2022C18.8933 17.0959 18.8336 16.9518 18.8336 16.8015H18.7336H18.6336C18.6336 17.0048 18.7143 17.1998 18.8581 17.3436L18.9288 17.2729ZM18.7336 16.8015H18.8336C18.8336 15.4942 18.3423 14.6108 17.4774 14.0292L17.4216 14.1122L17.3657 14.1951C18.1702 14.7361 18.6336 15.5541 18.6336 16.8015H18.7336ZM17.4216 14.1122L17.4774 14.0292C16.7674 13.5509 15.7687 13.2533 14.494 13.1458L14.4856 13.2455L14.4772 13.3451C15.733 13.451 16.6943 13.7428 17.3657 14.1951L17.4216 14.1122ZM14.4856 13.2455L14.5708 13.1933C14.2504 12.6698 13.8528 12.1978 13.3915 11.793L13.3256 11.8681L13.2596 11.9433C13.7058 12.3348 14.0903 12.7914 14.4003 13.2977L14.4856 13.2455ZM13.3256 11.8681L13.3273 11.9681L13.402 11.9668L13.4002 11.8668L13.3984 11.7668L13.3238 11.7682L13.3256 11.8681ZM6.76689 2.46682L6.76437 2.56678C7.83388 2.59374 8.85052 3.03753 9.59743 3.8035L9.66903 3.73368L9.74062 3.66387C8.95729 2.86055 7.89107 2.39511 6.76941 2.36685L6.76689 2.46682ZM9.66903 3.73368L9.59743 3.8035C10.3443 4.56946 10.7624 5.59697 10.7624 6.66682H10.8624H10.9624C10.9624 5.5448 10.524 4.46719 9.74062 3.66387L9.66903 3.73368ZM10.8624 6.66682H10.7624C10.7624 7.73667 10.3443 8.76417 9.59743 9.53013L9.66903 9.59995L9.74062 9.66976C10.524 8.86644 10.9624 7.78884 10.9624 6.66682H10.8624ZM9.66903 9.59995L9.59743 9.53013C8.85052 10.2961 7.83388 10.7399 6.76437 10.7668L6.76689 10.8668L6.76941 10.9668C7.89107 10.9385 8.95729 10.4731 9.74062 9.66976L9.66903 9.59995ZM6.76689 10.8668V10.7668C5.6795 10.7668 4.63665 10.3349 3.86775 9.56595L3.79704 9.63666L3.72633 9.70738C4.53273 10.5138 5.62646 10.9668 6.76689 10.9668V10.8668ZM3.79704 9.63666L3.86775 9.56595C3.09885 8.79706 2.66689 7.7542 2.66689 6.66682H2.56689H2.46689C2.46689 7.80725 2.91992 8.90097 3.72633 9.70738L3.79704 9.63666ZM2.56689 6.66682H2.66689C2.66689 5.57943 3.09885 4.53658 3.86775 3.76768L3.79704 3.69697L3.72633 3.62626C2.91992 4.43266 2.46689 5.52639 2.46689 6.66682H2.56689ZM3.79704 3.69697L3.86775 3.76768C4.63665 2.99878 5.6795 2.56682 6.76689 2.56682V2.46682V2.36682C5.62646 2.36682 4.53273 2.81985 3.72633 3.62626L3.79704 3.69697ZM13.4002 2.46682V2.56682C14.4876 2.56682 15.5305 2.99878 16.2994 3.76768L16.3701 3.69697L16.4408 3.62626C15.6344 2.81985 14.5407 2.36682 13.4002 2.36682V2.46682ZM16.3701 3.69697L16.2994 3.76768C17.0683 4.53658 17.5002 5.57943 17.5002 6.66682H17.6002H17.7002C17.7002 5.52639 17.2472 4.43266 16.4408 3.62626L16.3701 3.69697ZM17.6002 6.66682H17.5002C17.5002 7.7542 17.0683 8.79706 16.2994 9.56595L16.3701 9.63666L16.4408 9.70738C17.2472 8.90097 17.7002 7.80725 17.7002 6.66682H17.6002ZM16.3701 9.63666L16.2994 9.56595C15.5305 10.3349 14.4876 10.7668 13.4002 10.7668V10.8668V10.9668C14.5407 10.9668 15.6344 10.5138 16.4408 9.70738L16.3701 9.63666ZM13.4002 10.8668V10.7668C12.7183 10.7668 12.0781 10.5977 11.5131 10.3035L11.4669 10.3921L11.4207 10.4808C12.013 10.7893 12.6848 10.9668 13.4002 10.9668V10.8668ZM11.4669 10.3921L11.5452 10.4544C11.8288 10.0977 12.0716 9.71027 12.269 9.29946L12.1789 9.25615L12.0888 9.21284C11.8978 9.61018 11.663 9.98488 11.3886 10.3299L11.4669 10.3921ZM12.1789 9.25615L12.1361 9.34654C12.5883 9.56045 13.0872 9.65655 13.5865 9.62591L13.5804 9.5261L13.5742 9.42629C13.1086 9.45486 12.6433 9.36524 12.2217 9.16575L12.1789 9.25615ZM13.5804 9.5261L13.5865 9.62591C14.0858 9.59527 14.5692 9.43888 14.9918 9.17128L14.9383 9.08679L14.8848 9.00231C14.4907 9.25186 14.0399 9.39771 13.5742 9.42629L13.5804 9.5261ZM14.9383 9.08679L14.9918 9.17128C15.4144 8.90368 15.7625 8.53357 16.0037 8.09535L15.9161 8.04713L15.8285 7.99891C15.6036 8.40759 15.279 8.75275 14.8848 9.00231L14.9383 9.08679ZM15.9161 8.04713L16.0037 8.09535C16.2449 7.65713 16.3714 7.16503 16.3714 6.66482H16.2714H16.1714C16.1714 7.13131 16.0535 7.59023 15.8285 7.99891L15.9161 8.04713ZM16.2714 6.66482H16.3714C16.3714 6.1646 16.2449 5.6725 16.0037 5.23428L15.9161 5.2825L15.8285 5.33072C16.0535 5.7394 16.1714 6.19832 16.1714 6.66482H16.2714ZM15.9161 5.2825L16.0037 5.23428C15.7625 4.79606 15.4144 4.42595 14.9918 4.15835L14.9383 4.24284L14.8848 4.32733C15.279 4.57688 15.6036 4.92205 15.8285 5.33072L15.9161 5.2825ZM14.9383 4.24284L14.9918 4.15835C14.5692 3.89075 14.0858 3.73436 13.5865 3.70372L13.5804 3.80353L13.5742 3.90335C14.0399 3.93192 14.4907 4.07777 14.8848 4.32733L14.9383 4.24284ZM13.5804 3.80353L13.5865 3.70372C13.0872 3.67308 12.5883 3.76918 12.1361 3.98309L12.1789 4.07348L12.2217 4.16388C12.6433 3.96439 13.1086 3.87477 13.5742 3.90335L13.5804 3.80353ZM12.1789 4.07348L12.2689 4.02999C12.0709 3.62006 11.8277 3.23358 11.5437 2.87777L11.4656 2.94015L11.3874 3.00253C11.6621 3.34667 11.8973 3.72048 12.0888 4.11697L12.1789 4.07348ZM11.4656 2.94015L11.512 3.0287C12.0939 2.72336 12.7415 2.5648 13.3986 2.56682L13.3989 2.46682L13.3992 2.36682C12.7095 2.3647 12.0298 2.53112 11.4191 2.8516L11.4656 2.94015ZM6.76689 3.80015L6.76384 3.7002C5.9927 3.72372 5.26103 4.04658 4.72388 4.60036L4.79566 4.66999L4.86744 4.73961C5.3684 4.22315 6.05076 3.92204 6.76994 3.9001L6.76689 3.80015ZM4.79566 4.66999L4.72388 4.60036C4.18674 5.15415 3.88633 5.89532 3.88633 6.66682H3.98633H4.08633C4.08633 5.94731 4.36649 5.25608 4.86744 4.73961L4.79566 4.66999ZM3.98633 6.66682H3.88633C3.88633 7.43831 4.18674 8.17949 4.72388 8.73327L4.79566 8.66364L4.86744 8.59402C4.36649 8.07755 4.08633 7.38632 4.08633 6.66682H3.98633ZM4.79566 8.66364L4.72388 8.73327C5.26103 9.28705 5.9927 9.60991 6.76384 9.63344L6.76689 9.53348L6.76994 9.43353C6.05076 9.41159 5.3684 9.11048 4.86744 8.59402L4.79566 8.66364ZM6.76689 9.53348V9.63348C7.5537 9.63348 8.30828 9.32092 8.86464 8.76457L8.79393 8.69386L8.72322 8.62314C8.20436 9.142 7.50065 9.43348 6.76689 9.43348V9.53348ZM8.79393 8.69386L8.86464 8.76457C9.42099 8.20821 9.73355 7.45363 9.73355 6.66682H9.63355H9.53355C9.53355 7.40058 9.24207 8.10429 8.72322 8.62314L8.79393 8.69386ZM9.63355 6.66682H9.73355C9.73355 5.88001 9.42099 5.12542 8.86464 4.56907L8.79393 4.63978L8.72322 4.71049C9.24207 5.22934 9.53355 5.93305 9.53355 6.66682H9.63355ZM8.79393 4.63978L8.86464 4.56907C8.30828 4.01271 7.5537 3.70015 6.76689 3.70015V3.80015V3.90015C7.50065 3.90015 8.20436 4.19164 8.72322 4.71049L8.79393 4.63978Z" fill="black" mask="url(#path-1-outside-1_3116_9576)"/>
</svg>
