<svg width="20" height="20" viewBox="0 0 20 20" fill="none" xmlns="http://www.w3.org/2000/svg">
<path d="M12.4999 16.5667C12.5332 16.8167 12.4499 17.0833 12.2582 17.2583C12.1811 17.3356 12.0896 17.3969 11.9888 17.4387C11.888 17.4805 11.7799 17.502 11.6707 17.502C11.5616 17.502 11.4535 17.4805 11.3527 17.4387C11.2519 17.3969 11.1603 17.3356 11.0832 17.2583L7.74158 13.9167C7.65074 13.8278 7.58167 13.7191 7.53975 13.5991C7.49783 13.4792 7.4842 13.3511 7.49991 13.225V8.95833L3.50824 3.85C3.37292 3.67628 3.31186 3.45605 3.3384 3.23744C3.36495 3.01883 3.47694 2.81962 3.64991 2.68333C3.80824 2.56667 3.98324 2.5 4.16658 2.5H15.8332C16.0166 2.5 16.1916 2.56667 16.3499 2.68333C16.5229 2.81962 16.6349 3.01883 16.6614 3.23744C16.688 3.45605 16.6269 3.67628 16.4916 3.85L12.4999 8.95833V16.5667ZM5.86658 4.16667L9.16658 8.38333V12.9833L10.8332 14.65V8.375L14.1332 4.16667H5.86658Z" fill="#F9FBFF"/>
</svg>
