<svg width="20" height="20" viewBox="0 0 20 20" fill="none" xmlns="http://www.w3.org/2000/svg">
<path d="M1.66669 14.167V5.83366C1.66669 5.39163 1.84228 4.96771 2.15484 4.65515C2.4674 4.34259 2.89133 4.16699 3.33335 4.16699H16.6667C17.1087 4.16699 17.5326 4.34259 17.8452 4.65515C18.1578 4.96771 18.3334 5.39163 18.3334 5.83366V14.167C18.3334 14.609 18.1578 15.0329 17.8452 15.3455C17.5326 15.6581 17.1087 15.8337 16.6667 15.8337H3.33335C2.89133 15.8337 2.4674 15.6581 2.15484 15.3455C1.84228 15.0329 1.66669 14.609 1.66669 14.167Z" stroke="black" stroke-width="1.4" stroke-linecap="round" stroke-linejoin="round"/>
<path d="M15.4167 10.0083L15.425 9.99917M4.58337 10.0083L4.59171 9.99917M10 12.5C9.337 12.5 8.70111 12.2366 8.23227 11.7678C7.76343 11.2989 7.50004 10.663 7.50004 10C7.50004 9.33696 7.76343 8.70107 8.23227 8.23223C8.70111 7.76339 9.337 7.5 10 7.5C10.6631 7.5 11.299 7.76339 11.7678 8.23223C12.2366 8.70107 12.5 9.33696 12.5 10C12.5 10.663 12.2366 11.2989 11.7678 11.7678C11.299 12.2366 10.6631 12.5 10 12.5Z" stroke="black" stroke-width="1.4" stroke-linecap="round" stroke-linejoin="round"/>
</svg>
