<svg width="20" height="20" viewBox="0 0 20 20" fill="none" xmlns="http://www.w3.org/2000/svg">
<path d="M10 11.6667C11.8384 11.6667 13.3334 10.1717 13.3334 8.33333C13.3334 6.495 11.8384 5 10 5C8.16169 5 6.66669 6.495 6.66669 8.33333C6.66669 10.1717 8.16169 11.6667 10 11.6667ZM10 6.66667C10.9192 6.66667 11.6667 7.41417 11.6667 8.33333C11.6667 9.2525 10.9192 10 10 10C9.08085 10 8.33335 9.2525 8.33335 8.33333C8.33335 7.41417 9.08085 6.66667 10 6.66667Z" fill="black"/>
<path d="M9.51672 18.1784C9.65786 18.2789 9.8268 18.3329 10.0001 18.3329C10.1733 18.3329 10.3423 18.2789 10.4834 18.1784C10.7367 17.9992 16.6909 13.7001 16.6667 8.33341C16.6667 4.65758 13.6759 1.66675 10.0001 1.66675C6.32422 1.66675 3.33339 4.65758 3.33339 8.32925C3.30922 13.7001 9.26339 17.9992 9.51672 18.1784ZM10.0001 3.33341C12.7576 3.33341 15.0001 5.57591 15.0001 8.33758C15.0176 12.0359 11.3434 15.3567 10.0001 16.4459C8.65755 15.3559 4.98255 12.0342 5.00005 8.33341C5.00005 5.57591 7.24255 3.33341 10.0001 3.33341Z" fill="black"/>
</svg>
