<svg width="20" height="20" viewBox="0 0 20 20" fill="none" xmlns="http://www.w3.org/2000/svg">
<path d="M14.5833 5.41659L19.1666 7.49992V18.3333L13.3333 15.8333M13.3333 15.8333L6.66665 18.3333M13.3333 15.8333V9.99992M6.66665 18.3333L0.833313 15.8333V4.99992L4.99998 6.66659M6.66665 18.3333V9.99992M9.99998 13.5608C9.99998 13.5608 4.99998 9.58325 4.99998 5.83325C4.99998 2.70825 7.49998 0.833252 9.99998 0.833252C12.5 0.833252 15 2.70825 15 5.83325C15 9.58325 9.99998 13.5608 9.99998 13.5608ZM10.8333 5.83325C10.8333 5.61224 10.7455 5.40028 10.5892 5.244C10.433 5.08772 10.221 4.99992 9.99998 4.99992C9.77897 4.99992 9.567 5.08772 9.41072 5.244C9.25444 5.40028 9.16665 5.61224 9.16665 5.83325C9.16665 6.05427 9.25444 6.26623 9.41072 6.42251C9.567 6.57879 9.77897 6.66659 9.99998 6.66659C10.221 6.66659 10.433 6.57879 10.5892 6.42251C10.7455 6.26623 10.8333 6.05427 10.8333 5.83325Z" stroke="black" stroke-width="1.66667"/>
</svg>
