<svg width="20" height="20" viewBox="0 0 20 20" fill="none" xmlns="http://www.w3.org/2000/svg">
<path d="M5.625 12.7083H3.75C2.9212 12.7083 2.12634 12.379 1.54029 11.793C0.95424 11.2069 0.625 10.4121 0.625 9.58325C0.625 8.75445 0.95424 7.95959 1.54029 7.37354C2.12634 6.78749 2.9212 6.45825 3.75 6.45825H5.625M5.625 12.7083V6.45825M5.625 12.7083C9.29262 12.7086 12.8781 13.7941 15.93 15.8283L16.875 16.4583V2.70825L15.93 3.33825C12.8781 5.37237 9.29262 6.45794 5.625 6.45825M5.625 12.7083C5.62452 13.5265 5.79049 14.3364 6.11282 15.0885C6.43516 15.8406 6.90712 16.5193 7.5 17.0833M19.375 8.33325V10.8333" stroke="black" stroke-width="1.25" stroke-linecap="round" stroke-linejoin="round"/>
</svg>
