<svg width="20" height="20" viewBox="0 0 20 20" fill="none" xmlns="http://www.w3.org/2000/svg">
<path d="M6.66671 4.16699H5.00004C4.55801 4.16699 4.13409 4.34259 3.82153 4.65515C3.50897 4.96771 3.33337 5.39163 3.33337 5.83366V15.8337C3.33337 16.2757 3.50897 16.6996 3.82153 17.0122C4.13409 17.3247 4.55801 17.5003 5.00004 17.5003H9.74754M15 11.667V15.0003H18.3334M15 9.16699V5.83366C15 5.39163 14.8244 4.96771 14.5119 4.65515C14.1993 4.34259 13.7754 4.16699 13.3334 4.16699H11.6667" stroke="black" stroke-width="1.66667" stroke-linecap="round" stroke-linejoin="round"/>
<path d="M6.66663 9.16667H9.99996M6.66663 12.5H9.16663M6.66663 4.16667C6.66663 3.72464 6.84222 3.30072 7.15478 2.98816C7.46734 2.67559 7.89127 2.5 8.33329 2.5H9.99996C10.442 2.5 10.8659 2.67559 11.1785 2.98816C11.491 3.30072 11.6666 3.72464 11.6666 4.16667C11.6666 4.60869 11.491 5.03262 11.1785 5.34518C10.8659 5.65774 10.442 5.83333 9.99996 5.83333H8.33329C7.89127 5.83333 7.46734 5.65774 7.15478 5.34518C6.84222 5.03262 6.66663 4.60869 6.66663 4.16667ZM11.6666 15C11.6666 15.8841 12.0178 16.7319 12.6429 17.357C13.2681 17.9821 14.1159 18.3333 15 18.3333C15.884 18.3333 16.7319 17.9821 17.357 17.357C17.9821 16.7319 18.3333 15.8841 18.3333 15C18.3333 14.1159 17.9821 13.2681 17.357 12.643C16.7319 12.0179 15.884 11.6667 15 11.6667C14.1159 11.6667 13.2681 12.0179 12.6429 12.643C12.0178 13.2681 11.6666 14.1159 11.6666 15Z" stroke="black" stroke-width="1.66667" stroke-linecap="round" stroke-linejoin="round"/>
</svg>
