<svg width="20" height="20" viewBox="0 0 20 20" fill="none" xmlns="http://www.w3.org/2000/svg">
<path d="M2.5 8.3335V15.8335C2.5 16.2755 2.67559 16.6994 2.98816 17.012C3.30072 17.3246 3.72464 17.5002 4.16667 17.5002H15.8333C16.2754 17.5002 16.6993 17.3246 17.0118 17.012C17.3244 16.6994 17.5 16.2755 17.5 15.8335V8.3335" stroke="black" stroke-width="1.25"/>
<path d="M12.3608 17.5002V12.5002C12.3608 12.0581 12.1852 11.6342 11.8727 11.3217C11.5601 11.0091 11.1362 10.8335 10.6942 10.8335H9.02751C8.58548 10.8335 8.16156 11.0091 7.84899 11.3217C7.53643 11.6342 7.36084 12.0581 7.36084 12.5002V17.5002" stroke="black" stroke-width="1.25" stroke-miterlimit="16"/>
<path d="M18.1817 7.80333L16.77 2.8625C16.7401 2.75804 16.677 2.66615 16.5903 2.60075C16.5035 2.53534 16.3978 2.49998 16.2892 2.5H12.9167L13.3125 7.25333C13.3186 7.32973 13.3428 7.40358 13.3831 7.46878C13.4234 7.53398 13.4786 7.58867 13.5442 7.62833C13.8692 7.8225 14.5042 8.18083 15 8.33333C15.8467 8.59417 17.0834 8.5 17.7884 8.41333C17.8569 8.40447 17.9227 8.38076 17.9811 8.34386C18.0395 8.30696 18.0892 8.25775 18.1267 8.19966C18.1641 8.14158 18.1884 8.07603 18.1979 8.00758C18.2074 7.93912 18.2019 7.86942 18.1817 7.80333Z" stroke="black" stroke-width="1.25"/>
<path d="M11.6667 8.33333C12.14 8.1875 12.74 7.855 13.075 7.65667C13.1529 7.61004 13.2162 7.54239 13.2575 7.46147C13.2987 7.38055 13.3164 7.28964 13.3083 7.19917L12.9167 2.5H7.08333L6.69166 7.19917C6.68347 7.28978 6.70102 7.38086 6.7423 7.46195C6.78358 7.54303 6.8469 7.61081 6.92499 7.6575C7.25999 7.855 7.85999 8.1875 8.33333 8.33333C9.57749 8.71667 10.4225 8.71667 11.6667 8.33333Z" stroke="black" stroke-width="1.25"/>
<path d="M3.22998 2.8625L1.81832 7.80417C1.79839 7.87015 1.79306 7.93968 1.80271 8.00793C1.81235 8.07618 1.83673 8.14151 1.87415 8.19939C1.91158 8.25727 1.96115 8.30632 2.01943 8.34312C2.07771 8.37992 2.1433 8.40359 2.21165 8.4125C2.91582 8.5 4.15332 8.59333 4.99998 8.33333C5.49582 8.18083 6.13165 7.8225 6.45582 7.62917C6.52151 7.58942 6.57678 7.5346 6.61707 7.46925C6.65736 7.40389 6.68149 7.32988 6.68748 7.25333L7.08332 2.5H3.71082C3.60217 2.49998 3.49647 2.53534 3.40971 2.60075C3.32295 2.66615 3.25986 2.75804 3.22998 2.8625Z" stroke="black" stroke-width="1.25"/>
</svg>
