<svg width="15" height="15" viewBox="0 0 15 15" fill="none" xmlns="http://www.w3.org/2000/svg">
<path fill-rule="evenodd" clip-rule="evenodd" d="M8.75 2.5C9.24728 2.5 9.72419 2.69754 10.0758 3.04917C10.4275 3.40081 10.625 3.87772 10.625 4.375H12.5C12.8315 4.375 13.1495 4.5067 13.3839 4.74112C13.6183 4.97554 13.75 5.29348 13.75 5.625V11.875C13.75 12.2065 13.6183 12.5245 13.3839 12.7589C13.1495 12.9933 12.8315 13.125 12.5 13.125H2.5C2.16848 13.125 1.85054 12.9933 1.61612 12.7589C1.3817 12.5245 1.25 12.2065 1.25 11.875V5.625C1.25 5.29348 1.3817 4.97554 1.61612 4.74112C1.85054 4.5067 2.16848 4.375 2.5 4.375H4.375C4.375 3.87772 4.57254 3.40081 4.92417 3.04917C5.27581 2.69754 5.75272 2.5 6.25 2.5H8.75ZM9.375 5.625H5.625V11.875H9.375V5.625ZM12.5 5.625H10.625V11.875H12.5V5.625ZM4.375 5.625H2.5V11.875H4.375V5.625ZM8.75 3.75H6.25C6.09692 3.75002 5.94916 3.80622 5.83477 3.90795C5.72037 4.00967 5.64729 4.14984 5.62937 4.30187L5.625 4.375H9.375C9.37498 4.22192 9.31878 4.07416 9.21705 3.95977C9.11533 3.84537 8.97516 3.77229 8.82312 3.75437L8.75 3.75Z" fill="#5A5A5B"/>
</svg>
