<svg width="20" height="20" viewBox="0 0 20 20" fill="none" xmlns="http://www.w3.org/2000/svg">
<path d="M15 17.5V8.33333C15 8.11232 14.9122 7.90036 14.7559 7.74408C14.5996 7.5878 14.3877 7.5 14.1667 7.5H5.83333C5.61232 7.5 5.40036 7.5878 5.24408 7.74408C5.0878 7.90036 5 8.11232 5 8.33333V17.5" stroke="black" stroke-width="1.66667" stroke-linecap="round" stroke-linejoin="round"/>
<path d="M5.00002 10.8334H15M5.00002 14.1667H15M18.3334 15.8334C18.3334 16.2754 18.1578 16.6993 17.8452 17.0119C17.5326 17.3244 17.1087 17.5 16.6667 17.5H3.33335C2.89133 17.5 2.4674 17.3244 2.15484 17.0119C1.84228 16.6993 1.66669 16.2754 1.66669 15.8334V6.6667C1.6665 6.35285 1.75494 6.04532 1.92183 5.77951C2.08872 5.5137 2.32726 5.30042 2.61002 5.1642L9.23502 1.85254C9.47162 1.73022 9.73409 1.66638 10.0004 1.66638C10.2668 1.66638 10.5293 1.73022 10.7659 1.85254L17.3892 5.1642C17.6721 5.3003 17.9108 5.51353 18.0779 5.77935C18.2449 6.04517 18.3335 6.35276 18.3334 6.6667V15.8334Z" stroke="black" stroke-width="1.66667" stroke-linecap="round" stroke-linejoin="round"/>
</svg>
