<svg width="15" height="15" viewBox="0 0 15 15" fill="none" xmlns="http://www.w3.org/2000/svg">
<path d="M3.75 7.53125C3.75 8 3.83854 8.45583 4.01563 8.89875C4.19271 9.34167 4.46875 9.75042 4.84375 10.125L5 10.2813V9.375C5 9.19792 5.06 9.04958 5.18 8.93C5.3 8.81042 5.44834 8.75042 5.625 8.75C5.80167 8.74958 5.95021 8.80958 6.07063 8.93C6.19104 9.05042 6.25084 9.19875 6.25 9.375V11.875C6.25 12.0521 6.19 12.2006 6.07 12.3206C5.95 12.4406 5.80167 12.5004 5.625 12.5H3.125C2.94792 12.5 2.79959 12.44 2.68 12.32C2.56042 12.2 2.50042 12.0517 2.5 11.875C2.49959 11.6983 2.55959 11.55 2.68 11.43C2.80042 11.31 2.94875 11.25 3.125 11.25H4.21875L3.96875 11.0312C3.42709 10.5521 3.04688 10.0052 2.82813 9.39062C2.60938 8.77604 2.5 8.15625 2.5 7.53125C2.5 6.55208 2.75 5.66396 3.25 4.86688C3.75 4.06979 4.42188 3.45792 5.26563 3.03125C5.41146 2.94792 5.56521 2.94271 5.72688 3.01562C5.88854 3.08854 5.99521 3.20833 6.04688 3.375C6.09896 3.53125 6.09646 3.6875 6.03938 3.84375C5.98229 4 5.88063 4.11979 5.73438 4.20312C5.13021 4.53646 4.64854 4.9975 4.28938 5.58625C3.93021 6.175 3.75042 6.82333 3.75 7.53125ZM11.25 7.46875C11.25 7 11.1615 6.54437 10.9844 6.10187C10.8073 5.65937 10.5313 5.25042 10.1563 4.875L10 4.71875V5.625C10 5.80208 9.94 5.95063 9.82 6.07063C9.7 6.19063 9.55167 6.25042 9.375 6.25C9.19834 6.24958 9.05 6.18958 8.93 6.07C8.81 5.95042 8.75 5.80208 8.75 5.625V3.125C8.75 2.94792 8.81 2.79958 8.93 2.68C9.05 2.56042 9.19834 2.50042 9.375 2.5H11.875C12.0521 2.5 12.2006 2.56 12.3206 2.68C12.4406 2.8 12.5004 2.94833 12.5 3.125C12.4996 3.30167 12.4396 3.45021 12.32 3.57062C12.2004 3.69104 12.0521 3.75083 11.875 3.75H10.7813L11.0313 3.96875C11.5417 4.47917 11.9142 5.03396 12.1488 5.63312C12.3833 6.23229 12.5004 6.84417 12.5 7.46875C12.5 8.44792 12.25 9.33604 11.75 10.1331C11.25 10.9302 10.5781 11.5421 9.73438 11.9688C9.58854 12.0521 9.435 12.0573 9.27375 11.9844C9.1125 11.9115 9.00563 11.7917 8.95313 11.625C8.90104 11.4688 8.90375 11.3125 8.96125 11.1562C9.01875 11 9.12021 10.8802 9.26563 10.7969C9.86979 10.4635 10.3517 10.0027 10.7113 9.41437C11.0708 8.82604 11.2504 8.1775 11.25 7.46875Z" fill="#5A5A5B"/>
</svg>
