<svg width="24" height="24" viewBox="0 0 24 24" fill="none" xmlns="http://www.w3.org/2000/svg">
<g clip-path="url(#paint0_diamond_2448_8830_clip_path)" data-figma-skip-parse="true"><g transform="matrix(0 0.012 -0.012 0 12 12)"><rect x="0" y="0" width="1020" height="1020" fill="url(#paint0_diamond_2448_8830)" opacity="1" shape-rendering="crispEdges"/><rect x="0" y="0" width="1020" height="1020" transform="scale(1 -1)" fill="url(#paint0_diamond_2448_8830)" opacity="1" shape-rendering="crispEdges"/><rect x="0" y="0" width="1020" height="1020" transform="scale(-1 1)" fill="url(#paint0_diamond_2448_8830)" opacity="1" shape-rendering="crispEdges"/><rect x="0" y="0" width="1020" height="1020" transform="scale(-1)" fill="url(#paint0_diamond_2448_8830)" opacity="1" shape-rendering="crispEdges"/></g></g><circle cx="12" cy="12" r="12" data-figma-gradient-fill="{&#34;type&#34;:&#34;GRADIENT_DIAMOND&#34;,&#34;stops&#34;:[{&#34;color&#34;:{&#34;r&#34;:0.40000000596046448,&#34;g&#34;:0.26666668057441711,&#34;b&#34;:0.13725490868091583,&#34;a&#34;:0.80000001192092896},&#34;position&#34;:0.22115384042263031},{&#34;color&#34;:{&#34;r&#34;:0.40000000596046448,&#34;g&#34;:0.26666668057441711,&#34;b&#34;:0.13725490868091583,&#34;a&#34;:1.0},&#34;position&#34;:1.0}],&#34;stopsVar&#34;:[{&#34;color&#34;:{&#34;r&#34;:0.40000000596046448,&#34;g&#34;:0.26666668057441711,&#34;b&#34;:0.13725490868091583,&#34;a&#34;:0.80000001192092896},&#34;position&#34;:0.22115384042263031},{&#34;color&#34;:{&#34;r&#34;:0.40000000596046448,&#34;g&#34;:0.26666668057441711,&#34;b&#34;:0.13725490868091583,&#34;a&#34;:1.0},&#34;position&#34;:1.0}],&#34;transform&#34;:{&#34;m00&#34;:1.4695762231022014e-15,&#34;m01&#34;:-24.0,&#34;m02&#34;:24.0,&#34;m10&#34;:24.0,&#34;m11&#34;:1.4695762231022014e-15,&#34;m12&#34;:-1.4695762231022014e-15},&#34;opacity&#34;:1.0,&#34;blendMode&#34;:&#34;NORMAL&#34;,&#34;visible&#34;:true}"/>
<path d="M10.0713 7.63192C10.47 6.46525 12.082 6.42992 12.5547 7.52592L12.5947 7.63259L13.1327 9.20592C13.256 9.56674 13.4552 9.89693 13.717 10.1742C13.9787 10.4515 14.2969 10.6694 14.65 10.8133L14.7947 10.8673L16.368 11.4046C17.5347 11.8033 17.57 13.4153 16.4747 13.8879L16.368 13.9279L14.7947 14.4659C14.4337 14.5891 14.1034 14.7883 13.826 15.0501C13.5486 15.3118 13.3306 15.6301 13.1867 15.9833L13.1327 16.1273L12.5953 17.7013C12.1967 18.8679 10.5847 18.9033 10.1127 17.8079L10.0713 17.7013L9.53401 16.1279C9.4108 15.767 9.21159 15.4367 8.94984 15.1593C8.68808 14.8819 8.36987 14.6638 8.01668 14.5199L7.87268 14.4659L6.29934 13.9286C5.13201 13.5299 5.09668 11.9179 6.19268 11.4459L6.29934 11.4046L7.87268 10.8673C8.2335 10.744 8.56368 10.5447 8.84096 10.283C9.11823 10.0212 9.33615 9.70305 9.48001 9.34992L9.53401 9.20592L10.0713 7.63192ZM11.3333 8.06259L10.796 9.63592C10.6083 10.1861 10.3029 10.6888 9.90103 11.1089C9.49921 11.529 9.01064 11.8565 8.46934 12.0686L8.30268 12.1293L6.72934 12.6666L8.30268 13.2039C8.85288 13.3917 9.35554 13.6971 9.77567 14.0989C10.1958 14.5007 10.5233 14.9893 10.7353 15.5306L10.796 15.6973L11.3333 17.2706L11.8707 15.6973C12.0584 15.147 12.3638 14.6444 12.7657 14.2243C13.1675 13.8041 13.656 13.4766 14.1973 13.2646L14.364 13.2046L15.9373 12.6666L14.364 12.1293C13.8138 11.9415 13.3111 11.6361 12.891 11.2343C12.4709 10.8325 12.1434 10.3439 11.9313 9.80259L11.8713 9.63592L11.3333 8.06259ZM16.6667 5.33325C16.7914 5.33325 16.9136 5.36824 17.0194 5.43423C17.1253 5.50023 17.2105 5.59459 17.2653 5.70659L17.2973 5.78459L17.5307 6.46859L18.2153 6.70192C18.3403 6.74438 18.4499 6.823 18.5302 6.9278C18.6104 7.0326 18.6578 7.15886 18.6662 7.2906C18.6746 7.42233 18.6437 7.55361 18.5775 7.66778C18.5112 7.78195 18.4126 7.87388 18.294 7.93192L18.2153 7.96392L17.5313 8.19725L17.298 8.88192C17.2555 9.00687 17.1768 9.11638 17.072 9.19658C16.9671 9.27678 16.8408 9.32405 16.7091 9.3324C16.5774 9.34075 16.4461 9.30981 16.332 9.2435C16.2179 9.17719 16.126 9.0785 16.068 8.95992L16.036 8.88192L15.8027 8.19792L15.118 7.96459C14.993 7.92212 14.8835 7.84351 14.8032 7.73871C14.7229 7.63391 14.6756 7.50764 14.6672 7.3759C14.6587 7.24417 14.6896 7.1129 14.7559 6.99873C14.8221 6.88456 14.9208 6.79263 15.0393 6.73459L15.118 6.70259L15.802 6.46925L16.0353 5.78459C16.0803 5.65287 16.1653 5.53852 16.2786 5.45758C16.3918 5.37664 16.5275 5.33317 16.6667 5.33325Z" fill="#F9FBFF"/>
<defs>
<clipPath id="paint0_diamond_2448_8830_clip_path"><circle cx="12" cy="12" r="12"/></clipPath><linearGradient id="paint0_diamond_2448_8830" x1="0" y1="0" x2="500" y2="500" gradientUnits="userSpaceOnUse">
<stop offset="0.221154" stop-color="#664423" stop-opacity="0.8"/>
<stop offset="1" stop-color="#664423"/>
</linearGradient>
</defs>
</svg>
