<svg width="20" height="20" viewBox="0 0 20 20" fill="none" xmlns="http://www.w3.org/2000/svg">
<path d="M10 1.66675C10.3128 1.66675 10.6211 1.68369 10.925 1.71758C11.0338 1.72962 11.1391 1.76296 11.235 1.81571C11.3309 1.86846 11.4155 1.93958 11.4839 2.02501C11.5523 2.11044 11.6032 2.20851 11.6337 2.31361C11.6642 2.41872 11.6737 2.5288 11.6617 2.63758C11.6496 2.74636 11.6163 2.8517 11.5636 2.94759C11.5108 3.04348 11.4397 3.12805 11.3543 3.19645C11.2688 3.26486 11.1708 3.31577 11.0657 3.34627C10.9605 3.37678 10.8505 3.38629 10.7417 3.37425C9.36839 3.22062 7.98129 3.49753 6.77225 4.16668C5.56321 4.83584 4.59198 5.86416 3.99291 7.10941C3.39384 8.35466 3.19652 9.75531 3.42826 11.1176C3.66 12.4799 4.30935 13.7365 5.28647 14.7136C6.26359 15.6908 7.52021 16.3401 8.8825 16.5718C10.2448 16.8036 11.6454 16.6063 12.8907 16.0072C14.1359 15.4081 15.1643 14.4369 15.8334 13.2279C16.5026 12.0188 16.7795 10.6317 16.6259 9.25841C16.6138 9.14964 16.6233 9.03955 16.6538 8.93445C16.6843 8.82934 16.7352 8.73128 16.8036 8.64585C16.9418 8.47331 17.1428 8.36273 17.3625 8.33841C17.5822 8.3141 17.8026 8.37806 17.9751 8.51621C18.0605 8.58462 18.1316 8.66918 18.1844 8.76507C18.2371 8.86096 18.2705 8.9663 18.2825 9.07508C18.3159 9.37897 18.3328 9.6873 18.3334 10.0001C18.3334 14.6026 14.6025 18.3334 10 18.3334C5.39752 18.3334 1.66669 14.6026 1.66669 10.0001C1.66669 5.39758 5.39752 1.66675 10 1.66675ZM9.97335 6.56425C10.0283 6.77818 9.99602 7.00517 9.88367 7.19534C9.77132 7.3855 9.58807 7.52329 9.37419 7.57841C8.78658 7.73234 8.27505 8.09481 7.93505 8.59817C7.59505 9.10154 7.44981 9.71141 7.52644 10.314C7.60306 10.9166 7.89631 11.4707 8.35147 11.873C8.80662 12.2752 9.39259 12.4981 10 12.5001C10.5544 12.5003 11.0932 12.3162 11.5316 11.9768C11.97 11.6374 12.2831 11.1619 12.4217 10.6251C12.4808 10.4154 12.6196 10.2371 12.8085 10.1286C12.9974 10.02 13.2212 9.98968 13.4322 10.0442C13.6431 10.0986 13.8244 10.2336 13.937 10.42C14.0497 10.6065 14.0849 10.8297 14.035 11.0417C13.7794 12.0217 13.1757 12.875 12.3368 13.4424C11.4979 14.0097 10.4812 14.2523 9.47649 14.1247C8.47182 13.9971 7.54797 13.5081 6.87753 12.749C6.20708 11.99 5.83591 11.0128 5.83335 10.0001C5.83321 9.07624 6.1401 8.17855 6.70578 7.44814C7.27146 6.71774 8.06385 6.19604 8.95835 5.96508C9.06434 5.93776 9.17467 5.93159 9.28305 5.94692C9.39142 5.96225 9.49571 5.99878 9.58997 6.05442C9.68422 6.11005 9.76659 6.18372 9.83237 6.2712C9.89816 6.35867 9.94606 6.45825 9.97335 6.56425ZM15.42 1.77258C15.5721 1.83565 15.7021 1.94236 15.7937 2.07926C15.8852 2.21615 15.9341 2.37709 15.9342 2.54175V4.06675H17.4584C17.6231 4.06678 17.7842 4.11568 17.9212 4.20725C18.0582 4.29882 18.165 4.42895 18.2281 4.5812C18.2911 4.73345 18.3076 4.90098 18.2755 5.06261C18.2434 5.22424 18.164 5.3727 18.0475 5.48925L15.1 8.43341C14.9438 8.58971 14.7318 8.67753 14.5109 8.67758H12.5L10.9767 10.2017C10.8203 10.3581 10.6082 10.446 10.3871 10.446C10.166 10.446 9.95389 10.3581 9.79752 10.2017C9.64115 10.0454 9.55331 9.8333 9.55331 9.61216C9.55331 9.39103 9.64115 9.17895 9.79752 9.02258L11.3217 7.50008V5.48841C11.3217 5.26742 11.4096 5.05549 11.5659 4.89925L14.5117 1.95258C14.6282 1.83597 14.7767 1.75655 14.9384 1.72436C15.1001 1.69217 15.2677 1.70866 15.42 1.77175M14.2675 4.55258L12.9884 5.83341V7.01175H14.1667L15.4467 5.73258H15.1009C14.8798 5.73258 14.6679 5.64478 14.5116 5.4885C14.3553 5.33222 14.2675 5.12026 14.2675 4.89925V4.55258Z" fill="black"/>
</svg>
