<svg width="15" height="15" viewBox="0 0 15 15" fill="none" xmlns="http://www.w3.org/2000/svg">
<path d="M5.31259 7.81259L6.87509 9.37509L9.68759 6.56259M9.31571 3.11759L9.01571 2.70571C8.84173 2.46683 8.61374 2.27245 8.35035 2.13844C8.08695 2.00443 7.79561 1.93457 7.50009 1.93457C7.20456 1.93457 6.91322 2.00443 6.64982 2.13844C6.38643 2.27245 6.15844 2.46683 5.98446 2.70571L5.68446 3.11759L5.18196 3.03821C4.88996 2.99225 4.59123 3.01597 4.31015 3.10745C4.02907 3.19893 3.7736 3.35556 3.56458 3.56458C3.35556 3.7736 3.19893 4.02907 3.10745 4.31015C3.01597 4.59123 2.99225 4.88996 3.03821 5.18196L3.11759 5.68446L2.70571 5.98446C2.46683 6.15844 2.27245 6.38643 2.13844 6.64982C2.00443 6.91322 1.93457 7.20456 1.93457 7.50009C1.93457 7.79561 2.00443 8.08695 2.13844 8.35035C2.27245 8.61374 2.46683 8.84173 2.70571 9.01571L3.11759 9.31571L3.03821 9.81821C2.99225 10.1102 3.01597 10.4089 3.10745 10.69C3.19893 10.9711 3.35556 11.2266 3.56458 11.4356C3.7736 11.6446 4.02907 11.8012 4.31015 11.8927C4.59123 11.9842 4.88996 12.0079 5.18196 11.962L5.68446 11.8826L5.98446 12.2945C6.15844 12.5333 6.38643 12.7277 6.64982 12.8617C6.91322 12.9957 7.20456 13.0656 7.50009 13.0656C7.79561 13.0656 8.08695 12.9957 8.35035 12.8617C8.61374 12.7277 8.84173 12.5333 9.01571 12.2945L9.31571 11.8826L9.81821 11.962C10.1102 12.0079 10.4089 11.9842 10.69 11.8927C10.9711 11.8012 11.2266 11.6446 11.4356 11.4356C11.6446 11.2266 11.8012 10.9711 11.8927 10.69C11.9842 10.4089 12.0079 10.1102 11.962 9.81821L11.8826 9.31571L12.2945 9.01571C12.5333 8.84173 12.7277 8.61374 12.8617 8.35035C12.9957 8.08695 13.0656 7.79561 13.0656 7.50009C13.0656 7.20456 12.9957 6.91322 12.8617 6.64982C12.7277 6.38643 12.5333 6.15844 12.2945 5.98446L11.8826 5.68446L11.962 5.18196C12.0079 4.88996 11.9842 4.59123 11.8927 4.31015C11.8012 4.02907 11.6446 3.7736 11.4356 3.56458C11.2266 3.35556 10.9711 3.19893 10.69 3.10745C10.4089 3.01597 10.1102 2.99225 9.81821 3.03821L9.31571 3.11759Z" stroke="#5A5A5B" stroke-width="1.25" stroke-linecap="round" stroke-linejoin="round"/>
</svg>
