<svg xmlns="http://www.w3.org/2000/svg" xmlns:xlink="http://www.w3.org/1999/xlink" width="1080" zoomAndPan="magnify" viewBox="0 0 810 809.999993" height="1080" preserveAspectRatio="xMidYMid meet" version="1.0"><defs><filter x="0%" y="0%" width="100%" height="100%" id="865a76c486"><feColorMatrix values="0 0 0 0 1 0 0 0 0 1 0 0 0 0 1 0 0 0 1 0" color-interpolation-filters="sRGB"/></filter><g/><clipPath id="aa2fc5bb1e"><path d="M 0 88.125 L 810 88.125 L 810 721.875 L 0 721.875 Z M 0 88.125 " clip-rule="nonzero"/></clipPath><clipPath id="9be3a168f8"><path d="M 0 0.125 L 810 0.125 L 810 633.875 L 0 633.875 Z M 0 0.125 " clip-rule="nonzero"/></clipPath><clipPath id="58a942403f"><path d="M 0 0.125 L 810 0.125 L 810 633.875 L 0 633.875 Z M 0 0.125 " clip-rule="nonzero"/></clipPath><linearGradient x1="419.75" gradientTransform="matrix(0.749748, 0, 0, 0.750352, 88.074477, 270.121808)" y1="-359.826801" x2="419.75" gradientUnits="userSpaceOnUse" y2="484.776655" id="a3ede10ab8"><stop stop-opacity="1" stop-color="rgb(43.139648%, 34.509277%, 28.239441%)" offset="0"/><stop stop-opacity="1" stop-color="rgb(43.139648%, 34.509277%, 28.239441%)" offset="0.25"/><stop stop-opacity="1" stop-color="rgb(43.139648%, 34.509277%, 28.239441%)" offset="0.375"/><stop stop-opacity="1" stop-color="rgb(43.139648%, 34.509277%, 28.239441%)" offset="0.40625"/><stop stop-opacity="1" stop-color="rgb(43.139648%, 34.509277%, 28.239441%)" offset="0.421875"/><stop stop-opacity="1" stop-color="rgb(43.42804%, 34.825134%, 28.555298%)" offset="0.425781"/><stop stop-opacity="1" stop-color="rgb(43.716431%, 35.140991%, 28.871155%)" offset="0.429687"/><stop stop-opacity="1" stop-color="rgb(44.37561%, 35.862732%, 29.592896%)" offset="0.433594"/><stop stop-opacity="1" stop-color="rgb(45.03479%, 36.585999%, 30.314636%)" offset="0.4375"/><stop stop-opacity="1" stop-color="rgb(45.69397%, 37.307739%, 31.034851%)" offset="0.441406"/><stop stop-opacity="1" stop-color="rgb(46.353149%, 38.031006%, 31.756592%)" offset="0.445312"/><stop stop-opacity="1" stop-color="rgb(47.010803%, 38.752747%, 32.478333%)" offset="0.449219"/><stop stop-opacity="1" stop-color="rgb(47.669983%, 39.476013%, 33.200073%)" offset="0.453125"/><stop stop-opacity="1" stop-color="rgb(48.329163%, 40.197754%, 33.921814%)" offset="0.457031"/><stop stop-opacity="1" stop-color="rgb(48.988342%, 40.919495%, 34.643555%)" offset="0.460938"/><stop stop-opacity="1" stop-color="rgb(49.647522%, 41.641235%, 35.36377%)" offset="0.464844"/><stop stop-opacity="1" stop-color="rgb(50.306702%, 42.364502%, 36.08551%)" offset="0.46875"/><stop stop-opacity="1" stop-color="rgb(51.002502%, 43.11676%, 36.843872%)" offset="0.472656"/><stop stop-opacity="1" stop-color="rgb(51.698303%, 43.870544%, 37.602234%)" offset="0.476562"/><stop stop-opacity="1" stop-color="rgb(52.545166%, 44.749451%, 38.513184%)" offset="0.480469"/><stop stop-opacity="1" stop-color="rgb(53.393555%, 45.628357%, 39.425659%)" offset="0.484375"/><stop stop-opacity="1" stop-color="rgb(54.241943%, 46.507263%, 40.336609%)" offset="0.488281"/><stop stop-opacity="1" stop-color="rgb(55.090332%, 47.387695%, 41.247559%)" offset="0.492188"/><stop stop-opacity="1" stop-color="rgb(55.937195%, 48.266602%, 42.158508%)" offset="0.496094"/><stop stop-opacity="1" stop-color="rgb(56.785583%, 49.145508%, 43.070984%)" offset="0.5"/><stop stop-opacity="1" stop-color="rgb(57.633972%, 50.024414%, 43.981934%)" offset="0.503906"/><stop stop-opacity="1" stop-color="rgb(58.482361%, 50.904846%, 44.892883%)" offset="0.507812"/><stop stop-opacity="1" stop-color="rgb(59.33075%, 51.783752%, 45.803833%)" offset="0.511719"/><stop stop-opacity="1" stop-color="rgb(60.179138%, 52.662659%, 46.716309%)" offset="0.515625"/><stop stop-opacity="1" stop-color="rgb(61.026001%, 53.541565%, 47.627258%)" offset="0.519531"/><stop stop-opacity="1" stop-color="rgb(61.87439%, 54.421997%, 48.538208%)" offset="0.523438"/><stop stop-opacity="1" stop-color="rgb(62.870789%, 55.479431%, 49.627686%)" offset="0.527344"/><stop stop-opacity="1" stop-color="rgb(63.868713%, 56.536865%, 50.717163%)" offset="0.53125"/><stop stop-opacity="1" stop-color="rgb(64.872742%, 57.60498%, 51.815796%)" offset="0.535156"/><stop stop-opacity="1" stop-color="rgb(65.878296%, 58.673096%, 52.914429%)" offset="0.539062"/><stop stop-opacity="1" stop-color="rgb(66.88385%, 59.739685%, 54.013062%)" offset="0.542969"/><stop stop-opacity="1" stop-color="rgb(67.889404%, 60.8078%, 55.111694%)" offset="0.546875"/><stop stop-opacity="1" stop-color="rgb(68.893433%, 61.87439%, 56.210327%)" offset="0.550781"/><stop stop-opacity="1" stop-color="rgb(69.898987%, 62.942505%, 57.30896%)" offset="0.554688"/><stop stop-opacity="1" stop-color="rgb(70.903015%, 64.009094%, 58.407593%)" offset="0.558594"/><stop stop-opacity="1" stop-color="rgb(71.908569%, 65.077209%, 59.506226%)" offset="0.5625"/><stop stop-opacity="1" stop-color="rgb(72.912598%, 66.143799%, 60.604858%)" offset="0.566406"/><stop stop-opacity="1" stop-color="rgb(73.918152%, 67.211914%, 61.703491%)" offset="0.570312"/><stop stop-opacity="1" stop-color="rgb(75.212097%, 68.589783%, 63.134766%)" offset="0.574219"/><stop stop-opacity="1" stop-color="rgb(76.506042%, 69.969177%, 64.567566%)" offset="0.578125"/><stop stop-opacity="1" stop-color="rgb(77.919006%, 71.476746%, 66.137695%)" offset="0.582031"/><stop stop-opacity="1" stop-color="rgb(79.33197%, 72.984314%, 67.707825%)" offset="0.585937"/><stop stop-opacity="1" stop-color="rgb(80.744934%, 74.491882%, 69.277954%)" offset="0.589844"/><stop stop-opacity="1" stop-color="rgb(82.159424%, 76.000977%, 70.848083%)" offset="0.59375"/><stop stop-opacity="1" stop-color="rgb(83.572388%, 77.508545%, 72.418213%)" offset="0.597656"/><stop stop-opacity="1" stop-color="rgb(84.985352%, 79.016113%, 73.988342%)" offset="0.601562"/><stop stop-opacity="1" stop-color="rgb(86.398315%, 80.523682%, 75.558472%)" offset="0.605469"/><stop stop-opacity="1" stop-color="rgb(87.812805%, 82.03125%, 77.130127%)" offset="0.609375"/><stop stop-opacity="1" stop-color="rgb(89.225769%, 83.538818%, 78.700256%)" offset="0.613281"/><stop stop-opacity="1" stop-color="rgb(90.638733%, 85.047913%, 80.270386%)" offset="0.617188"/><stop stop-opacity="1" stop-color="rgb(91.398621%, 85.858154%, 81.114197%)" offset="0.621094"/><stop stop-opacity="1" stop-color="rgb(92.158508%, 86.669922%, 81.959534%)" offset="0.625"/><stop stop-opacity="1" stop-color="rgb(92.158508%, 86.669922%, 81.959534%)" offset="0.75"/><stop stop-opacity="1" stop-color="rgb(92.158508%, 86.669922%, 81.959534%)" offset="1"/></linearGradient><clipPath id="8cb521bc86"><rect x="0" width="810" y="0" height="634"/></clipPath><clipPath id="34bd3da28e"><path d="M 0 0.125 L 810 0.125 L 810 633.875 L 0 633.875 Z M 0 0.125 " clip-rule="nonzero"/></clipPath><clipPath id="3f3e49634a"><rect x="0" width="810" y="0" height="634"/></clipPath><clipPath id="d59555b493"><rect x="0" width="810" y="0" height="634"/></clipPath><mask id="a5c894fc16"><g filter="url(#865a76c486)"><g transform="matrix(1, 0, 0, 1, 0, 0.000000000000042633)"><g clip-path="url(#d59555b493)"><g clip-path="url(#34bd3da28e)"><g transform="matrix(1, 0, 0, 1, 0, 0.000000000000042633)"><g clip-path="url(#3f3e49634a)"><g fill="#000000" fill-opacity="1"><g transform="translate(186.288803, 363.874997)"><g><path d="M 1.21875 -12.140625 C 1.21875 -14.753906 1.976562 -17.789062 3.5 -21.25 C 5.03125 -24.707031 6.695312 -27.066406 8.5 -28.328125 C 11.914062 -25.816406 15.378906 -24.5625 18.890625 -24.5625 L 23.078125 -25.234375 C 27.929688 -26.671875 30.445312 -30.535156 30.625 -36.828125 L 30.625 -71.234375 L 19.828125 -71.234375 C 18.304688 -71.234375 17.226562 -73.171875 16.59375 -77.046875 C 16.320312 -78.929688 16.1875 -80.863281 16.1875 -82.84375 C 16.1875 -84.820312 16.320312 -86.753906 16.59375 -88.640625 C 17.226562 -92.503906 18.304688 -94.4375 19.828125 -94.4375 L 51.9375 -94.4375 C 53.738281 -94.4375 55.085938 -93.921875 55.984375 -92.890625 C 56.890625 -91.859375 57.34375 -90.625 57.34375 -89.1875 L 57.34375 -25.5 C 57.34375 -16.6875 54.394531 -9.984375 48.5 -5.390625 C 42.613281 -0.804688 35.550781 1.484375 27.3125 1.484375 C 19.082031 1.484375 12.675781 0.269531 8.09375 -2.15625 C 3.507812 -4.582031 1.21875 -7.910156 1.21875 -12.140625 Z M 1.21875 -12.140625 "/></g></g></g><g fill="#000000" fill-opacity="1"><g transform="translate(244.573044, 363.874997)"><g><path d="M 14.578125 -48.984375 C 12.054688 -53.472656 10.796875 -57.132812 10.796875 -59.96875 C 10.796875 -62.800781 11.5625 -64.625 13.09375 -65.4375 C 18.21875 -67.6875 25.253906 -68.8125 34.203125 -68.8125 C 43.148438 -68.8125 49.46875 -66.71875 53.15625 -62.53125 C 56.84375 -58.351562 58.6875 -52.171875 58.6875 -43.984375 L 58.6875 -22.671875 L 63.28125 -22.671875 C 64.8125 -22.671875 66.003906 -21.769531 66.859375 -19.96875 C 67.710938 -18.164062 68.140625 -15.691406 68.140625 -12.546875 C 68.140625 -9.398438 67.347656 -6.296875 65.765625 -3.234375 C 64.191406 -0.179688 62.054688 1.34375 59.359375 1.34375 C 54.503906 1.34375 50.59375 0.0390625 47.625 -2.5625 C 46.28125 -3.644531 45.25 -4.945312 44.53125 -6.46875 C 40.382812 -1.257812 33.953125 1.34375 25.234375 1.34375 C 18.660156 1.34375 13.125 -0.992188 8.625 -5.671875 C 4.132812 -10.347656 1.890625 -15.878906 1.890625 -22.265625 C 1.890625 -36.921875 10.660156 -44.25 28.203125 -44.25 L 35.625 -44.25 L 35.625 -45.609375 C 35.625 -47.941406 35.238281 -49.445312 34.46875 -50.125 C 33.707031 -50.800781 31.929688 -51.140625 29.140625 -51.140625 C 25.722656 -51.140625 20.867188 -50.421875 14.578125 -48.984375 Z M 25.359375 -24.15625 C 25.359375 -22.175781 25.898438 -20.664062 26.984375 -19.625 C 28.066406 -18.59375 29.4375 -18.078125 31.09375 -18.078125 C 32.757812 -18.078125 34.269531 -18.753906 35.625 -20.109375 L 35.625 -30.5 L 31.84375 -30.5 C 27.519531 -30.5 25.359375 -28.382812 25.359375 -24.15625 Z M 25.359375 -24.15625 "/></g></g></g><g fill="#000000" fill-opacity="1"><g transform="translate(310.277783, 363.874997)"><g><path d="M 35.078125 24.5625 C 35.078125 25.1875 31.234375 25.5 23.546875 25.5 C 15.859375 25.5 12.015625 25.1875 12.015625 24.5625 L 12.015625 -44.921875 L 7.421875 -44.921875 C 5.265625 -44.921875 3.78125 -46.898438 2.96875 -50.859375 C 2.695312 -52.117188 2.5625 -53.738281 2.5625 -55.71875 C 2.5625 -57.695312 3.191406 -60.035156 4.453125 -62.734375 C 6.253906 -66.691406 9.132812 -68.671875 13.09375 -68.671875 C 15.695312 -68.671875 18.097656 -68.0625 20.296875 -66.84375 C 22.503906 -65.632812 24.035156 -64.507812 24.890625 -63.46875 C 25.742188 -62.4375 26.171875 -61.832031 26.171875 -61.65625 C 32.203125 -66.332031 38.722656 -68.671875 45.734375 -68.671875 C 52.753906 -68.671875 58.78125 -65.945312 63.8125 -60.5 C 68.851562 -55.0625 71.375 -46.65625 71.375 -35.28125 C 71.375 -23.90625 68.851562 -15.085938 63.8125 -8.828125 C 58.78125 -2.578125 52.394531 0.546875 44.65625 0.546875 C 41.144531 0.546875 37.953125 0.363281 35.078125 0 Z M 40.609375 -45.0625 C 39.078125 -45.0625 37.59375 -44.566406 36.15625 -43.578125 L 36.15625 -19.703125 C 37.6875 -19.515625 38.921875 -19.421875 39.859375 -19.421875 C 40.804688 -19.421875 41.550781 -19.421875 42.09375 -19.421875 C 45.78125 -19.785156 47.625 -24.507812 47.625 -33.59375 C 47.625 -41.238281 45.285156 -45.0625 40.609375 -45.0625 Z M 40.609375 -45.0625 "/></g></g></g><g fill="#000000" fill-opacity="1"><g transform="translate(381.109395, 363.874997)"><g><path d="M 14.578125 -48.984375 C 12.054688 -53.472656 10.796875 -57.132812 10.796875 -59.96875 C 10.796875 -62.800781 11.5625 -64.625 13.09375 -65.4375 C 18.21875 -67.6875 25.253906 -68.8125 34.203125 -68.8125 C 43.148438 -68.8125 49.46875 -66.71875 53.15625 -62.53125 C 56.84375 -58.351562 58.6875 -52.171875 58.6875 -43.984375 L 58.6875 -22.671875 L 63.28125 -22.671875 C 64.8125 -22.671875 66.003906 -21.769531 66.859375 -19.96875 C 67.710938 -18.164062 68.140625 -15.691406 68.140625 -12.546875 C 68.140625 -9.398438 67.347656 -6.296875 65.765625 -3.234375 C 64.191406 -0.179688 62.054688 1.34375 59.359375 1.34375 C 54.503906 1.34375 50.59375 0.0390625 47.625 -2.5625 C 46.28125 -3.644531 45.25 -4.945312 44.53125 -6.46875 C 40.382812 -1.257812 33.953125 1.34375 25.234375 1.34375 C 18.660156 1.34375 13.125 -0.992188 8.625 -5.671875 C 4.132812 -10.347656 1.890625 -15.878906 1.890625 -22.265625 C 1.890625 -36.921875 10.660156 -44.25 28.203125 -44.25 L 35.625 -44.25 L 35.625 -45.609375 C 35.625 -47.941406 35.238281 -49.445312 34.46875 -50.125 C 33.707031 -50.800781 31.929688 -51.140625 29.140625 -51.140625 C 25.722656 -51.140625 20.867188 -50.421875 14.578125 -48.984375 Z M 25.359375 -24.15625 C 25.359375 -22.175781 25.898438 -20.664062 26.984375 -19.625 C 28.066406 -18.59375 29.4375 -18.078125 31.09375 -18.078125 C 32.757812 -18.078125 34.269531 -18.753906 35.625 -20.109375 L 35.625 -30.5 L 31.84375 -30.5 C 27.519531 -30.5 25.359375 -28.382812 25.359375 -24.15625 Z M 25.359375 -24.15625 "/></g></g></g><g fill="#000000" fill-opacity="1"><g transform="translate(446.814134, 363.874997)"><g><path d="M 14.578125 -48.984375 C 12.054688 -53.472656 10.796875 -57.132812 10.796875 -59.96875 C 10.796875 -62.800781 11.5625 -64.625 13.09375 -65.4375 C 18.21875 -67.6875 25.253906 -68.8125 34.203125 -68.8125 C 43.148438 -68.8125 49.46875 -66.71875 53.15625 -62.53125 C 56.84375 -58.351562 58.6875 -52.171875 58.6875 -43.984375 L 58.6875 -22.671875 L 63.28125 -22.671875 C 64.8125 -22.671875 66.003906 -21.769531 66.859375 -19.96875 C 67.710938 -18.164062 68.140625 -15.691406 68.140625 -12.546875 C 68.140625 -9.398438 67.347656 -6.296875 65.765625 -3.234375 C 64.191406 -0.179688 62.054688 1.34375 59.359375 1.34375 C 54.503906 1.34375 50.59375 0.0390625 47.625 -2.5625 C 46.28125 -3.644531 45.25 -4.945312 44.53125 -6.46875 C 40.382812 -1.257812 33.953125 1.34375 25.234375 1.34375 C 18.660156 1.34375 13.125 -0.992188 8.625 -5.671875 C 4.132812 -10.347656 1.890625 -15.878906 1.890625 -22.265625 C 1.890625 -36.921875 10.660156 -44.25 28.203125 -44.25 L 35.625 -44.25 L 35.625 -45.609375 C 35.625 -47.941406 35.238281 -49.445312 34.46875 -50.125 C 33.707031 -50.800781 31.929688 -51.140625 29.140625 -51.140625 C 25.722656 -51.140625 20.867188 -50.421875 14.578125 -48.984375 Z M 25.359375 -24.15625 C 25.359375 -22.175781 25.898438 -20.664062 26.984375 -19.625 C 28.066406 -18.59375 29.4375 -18.078125 31.09375 -18.078125 C 32.757812 -18.078125 34.269531 -18.753906 35.625 -20.109375 L 35.625 -30.5 L 31.84375 -30.5 C 27.519531 -30.5 25.359375 -28.382812 25.359375 -24.15625 Z M 25.359375 -24.15625 "/></g></g></g><g fill="#000000" fill-opacity="1"><g transform="translate(512.518873, 363.874997)"><g><path d="M 37.109375 -0.8125 C 37.109375 0.269531 33.328125 0.8125 25.765625 0.8125 C 16.773438 0.445312 12.28125 -0.132812 12.28125 -0.9375 L 12.28125 -48.703125 L 5.390625 -48.703125 C 3.597656 -48.703125 2.703125 -51.804688 2.703125 -58.015625 C 2.703125 -59.628906 2.859375 -61.601562 3.171875 -63.9375 C 3.484375 -66.28125 4.132812 -67.453125 5.125 -67.453125 L 12.28125 -67.453125 L 12.28125 -79.328125 C 12.28125 -81.128906 16.078125 -82.03125 23.671875 -82.03125 C 31.273438 -82.03125 35.078125 -81.3125 35.078125 -79.875 L 35.078125 -71.234375 L 35.21875 -67.453125 L 46.6875 -67.453125 C 48.21875 -67.453125 48.984375 -64.304688 48.984375 -58.015625 C 48.984375 -51.722656 48.21875 -48.578125 46.6875 -48.578125 L 37.109375 -48.578125 Z M 37.109375 -0.8125 "/></g></g></g><g fill="#000000" fill-opacity="1"><g transform="translate(558.12083, 363.874997)"><g><path d="M 57.078125 -3.640625 C 51.410156 -0.316406 44.125 1.34375 35.21875 1.34375 C 26.3125 1.34375 18.800781 -1.6875 12.6875 -7.75 C 6.570312 -13.820312 3.515625 -22.234375 3.515625 -32.984375 C 3.515625 -43.734375 6.457031 -52.390625 12.34375 -58.953125 C 18.238281 -65.523438 25.679688 -68.8125 34.671875 -68.8125 C 43.671875 -68.8125 50.617188 -66.515625 55.515625 -61.921875 C 60.421875 -57.335938 62.875 -51.765625 62.875 -45.203125 C 62.875 -30.628906 54.507812 -23.34375 37.78125 -23.34375 L 28.46875 -23.34375 C 28.46875 -20.644531 29.207031 -18.773438 30.6875 -17.734375 C 32.175781 -16.703125 34.359375 -16.1875 37.234375 -16.1875 C 43.535156 -16.1875 49.519531 -17.628906 55.1875 -20.515625 C 55.269531 -20.597656 55.671875 -19.96875 56.390625 -18.625 C 58.554688 -14.75 59.640625 -11.484375 59.640625 -8.828125 C 59.640625 -6.179688 58.785156 -4.453125 57.078125 -3.640625 Z M 40.203125 -42.640625 C 40.203125 -46.410156 38.359375 -48.296875 34.671875 -48.296875 C 32.960938 -48.296875 31.5 -47.78125 30.28125 -46.75 C 29.070312 -45.71875 28.46875 -44.210938 28.46875 -42.234375 L 28.46875 -38.046875 L 35.75 -38.046875 C 38.71875 -38.046875 40.203125 -39.578125 40.203125 -42.640625 Z M 40.203125 -42.640625 "/></g></g></g></g></g></g></g></g></g></mask><clipPath id="a1db92545e"><path d="M 0 0.125 L 810 0.125 L 810 633.875 L 0 633.875 Z M 0 0.125 " clip-rule="nonzero"/></clipPath><clipPath id="f3d28d907f"><rect x="0" width="810" y="0" height="634"/></clipPath><clipPath id="e90deebdee"><rect x="0" width="810" y="0" height="634"/></clipPath><clipPath id="3def3bf7bd"><path d="M 443 329 L 525 329 L 525 397.144531 L 443 397.144531 Z M 443 329 " clip-rule="nonzero"/></clipPath><clipPath id="76c274622f"><path d="M 503 324.394531 L 525.5 324.394531 L 525.5 351 L 503 351 Z M 503 324.394531 " clip-rule="nonzero"/></clipPath></defs><g clip-path="url(#aa2fc5bb1e)"><g transform="matrix(1, 0, 0, 1, 0, 88)"><g clip-path="url(#e90deebdee)"><g clip-path="url(#9be3a168f8)"><g mask="url(#a5c894fc16)"><g transform="matrix(1, 0, 0, 1, 0, 0.000000000000042633)"><g clip-path="url(#f3d28d907f)"><g clip-path="url(#a1db92545e)"><path fill="url(#a3ede10ab8)" d="M 0 0.125 L 0 633.875 L 810 633.875 L 810 0.125 Z M 0 0.125 " fill-rule="nonzero"/></g></g></g></g></g></g></g></g><g clip-path="url(#3def3bf7bd)"><path fill="#6e5848" d="M 463.941406 358.351562 C 464.753906 357.054688 466.441406 356.621094 467.78125 357.367188 L 479.730469 364.027344 L 475.859375 365.058594 L 484.070312 351.386719 C 484.46875 350.722656 485.117188 350.246094 485.871094 350.066406 C 486.621094 349.886719 487.417969 350.019531 488.070312 350.429688 L 505.078125 361.117188 L 501.054688 362.113281 L 519.105469 330.96875 C 519.902344 329.589844 521.664062 329.121094 523.039062 329.921875 C 524.414062 330.71875 524.882812 332.476562 524.085938 333.855469 L 506.035156 365 C 505.644531 365.675781 504.992188 366.164062 504.234375 366.351562 C 503.476562 366.539062 502.675781 366.410156 502.011719 365.992188 L 485.007812 355.304688 L 489.007812 354.347656 L 480.796875 368.023438 C 479.996094 369.355469 478.285156 369.8125 476.925781 369.054688 L 464.976562 362.394531 L 468.820312 361.410156 L 442.992188 397.203125 Z M 463.941406 358.351562 " fill-opacity="1" fill-rule="nonzero"/></g><g clip-path="url(#76c274622f)"><path fill="#6e5848" d="M 509.429688 336.785156 L 525.171875 324.414062 L 524.046875 350.988281 C 518.859375 336.894531 518.699219 336.8125 518.699219 336.8125 L 503.964844 341.714844 L 508.945312 337.164062 Z M 509.429688 336.785156 " fill-opacity="1" fill-rule="nonzero"/></g></svg>